<mxfile host="app.diagrams.net" agent="Mozilla/5.0 (Windows NT 10.0; Win64; x64) AppleWebKit/537.36 (KHTML, like Gecko) Chrome/137.0.0.0 Safari/537.36 Edg/137.0.0.0" version="26.2.14">
  <diagram name="Page-1" id="7SvtV1dhrx3cvqqzsJ8P">
    <mxGraphModel dx="1273" dy="621" grid="1" gridSize="10" guides="1" tooltips="1" connect="1" arrows="1" fold="1" page="1" pageScale="1" pageWidth="827" pageHeight="1169" math="0" shadow="0">
      <root>
        <mxCell id="0" />
        <mxCell id="1" parent="0" />
        <mxCell id="u86qRjpWfpCtLh4vlSnC-38" style="edgeStyle=orthogonalEdgeStyle;rounded=0;orthogonalLoop=1;jettySize=auto;html=1;entryX=0;entryY=0.5;entryDx=0;entryDy=0;" parent="1" source="u86qRjpWfpCtLh4vlSnC-1" target="u86qRjpWfpCtLh4vlSnC-21" edge="1">
          <mxGeometry relative="1" as="geometry" />
        </mxCell>
        <mxCell id="u86qRjpWfpCtLh4vlSnC-39" style="edgeStyle=orthogonalEdgeStyle;rounded=0;orthogonalLoop=1;jettySize=auto;html=1;entryX=0;entryY=0.5;entryDx=0;entryDy=0;" parent="1" source="u86qRjpWfpCtLh4vlSnC-1" target="u86qRjpWfpCtLh4vlSnC-19" edge="1">
          <mxGeometry relative="1" as="geometry" />
        </mxCell>
        <mxCell id="u86qRjpWfpCtLh4vlSnC-40" style="edgeStyle=orthogonalEdgeStyle;rounded=0;orthogonalLoop=1;jettySize=auto;html=1;" parent="1" source="u86qRjpWfpCtLh4vlSnC-1" target="u86qRjpWfpCtLh4vlSnC-20" edge="1">
          <mxGeometry relative="1" as="geometry" />
        </mxCell>
        <mxCell id="u86qRjpWfpCtLh4vlSnC-41" style="edgeStyle=orthogonalEdgeStyle;rounded=0;orthogonalLoop=1;jettySize=auto;html=1;entryX=0;entryY=0.5;entryDx=0;entryDy=0;" parent="1" source="u86qRjpWfpCtLh4vlSnC-1" target="u86qRjpWfpCtLh4vlSnC-22" edge="1">
          <mxGeometry relative="1" as="geometry" />
        </mxCell>
        <mxCell id="u86qRjpWfpCtLh4vlSnC-1" value="&lt;div&gt;Abonné&lt;/div&gt;" style="shape=umlActor;verticalLabelPosition=bottom;verticalAlign=top;html=1;" parent="1" vertex="1">
          <mxGeometry x="104" y="550" width="30" height="60" as="geometry" />
        </mxCell>
        <mxCell id="u86qRjpWfpCtLh4vlSnC-35" style="edgeStyle=orthogonalEdgeStyle;rounded=0;orthogonalLoop=1;jettySize=auto;html=1;entryX=0;entryY=0.5;entryDx=0;entryDy=0;" parent="1" source="u86qRjpWfpCtLh4vlSnC-2" target="u86qRjpWfpCtLh4vlSnC-9" edge="1">
          <mxGeometry relative="1" as="geometry" />
        </mxCell>
        <mxCell id="u86qRjpWfpCtLh4vlSnC-36" style="edgeStyle=orthogonalEdgeStyle;rounded=0;orthogonalLoop=1;jettySize=auto;html=1;" parent="1" source="u86qRjpWfpCtLh4vlSnC-2" target="u86qRjpWfpCtLh4vlSnC-10" edge="1">
          <mxGeometry relative="1" as="geometry" />
        </mxCell>
        <mxCell id="u86qRjpWfpCtLh4vlSnC-37" style="edgeStyle=orthogonalEdgeStyle;rounded=0;orthogonalLoop=1;jettySize=auto;html=1;entryX=0;entryY=0.5;entryDx=0;entryDy=0;" parent="1" source="u86qRjpWfpCtLh4vlSnC-2" target="u86qRjpWfpCtLh4vlSnC-33" edge="1">
          <mxGeometry relative="1" as="geometry" />
        </mxCell>
        <mxCell id="u86qRjpWfpCtLh4vlSnC-42" style="edgeStyle=orthogonalEdgeStyle;rounded=0;orthogonalLoop=1;jettySize=auto;html=1;" parent="1" source="u86qRjpWfpCtLh4vlSnC-2" edge="1">
          <mxGeometry relative="1" as="geometry">
            <mxPoint x="119" y="530" as="targetPoint" />
          </mxGeometry>
        </mxCell>
        <mxCell id="u86qRjpWfpCtLh4vlSnC-2" value="&lt;div&gt;Visiteur&lt;/div&gt;" style="shape=umlActor;verticalLabelPosition=bottom;verticalAlign=top;html=1;" parent="1" vertex="1">
          <mxGeometry x="104" y="200" width="30" height="60" as="geometry" />
        </mxCell>
        <mxCell id="u86qRjpWfpCtLh4vlSnC-32" style="edgeStyle=orthogonalEdgeStyle;rounded=0;orthogonalLoop=1;jettySize=auto;html=1;entryX=0;entryY=0.5;entryDx=0;entryDy=0;" parent="1" source="u86qRjpWfpCtLh4vlSnC-3" target="u86qRjpWfpCtLh4vlSnC-24" edge="1">
          <mxGeometry relative="1" as="geometry" />
        </mxCell>
        <mxCell id="u86qRjpWfpCtLh4vlSnC-3" value="Admin" style="shape=umlActor;verticalLabelPosition=bottom;verticalAlign=top;html=1;" parent="1" vertex="1">
          <mxGeometry x="104" y="800" width="30" height="60" as="geometry" />
        </mxCell>
        <mxCell id="u86qRjpWfpCtLh4vlSnC-9" value="&lt;div&gt;&lt;div&gt;Se connecter&lt;/div&gt;&lt;/div&gt;" style="ellipse;whiteSpace=wrap;html=1;" parent="1" vertex="1">
          <mxGeometry x="244" y="290" width="120" height="80" as="geometry" />
        </mxCell>
        <mxCell id="u86qRjpWfpCtLh4vlSnC-10" value="&lt;div&gt;S’inscrire&lt;/div&gt;" style="ellipse;whiteSpace=wrap;html=1;" parent="1" vertex="1">
          <mxGeometry x="244" y="190" width="120" height="80" as="geometry" />
        </mxCell>
        <mxCell id="u86qRjpWfpCtLh4vlSnC-19" value="&lt;div&gt;Acheter un produit&lt;/div&gt;" style="ellipse;whiteSpace=wrap;html=1;" parent="1" vertex="1">
          <mxGeometry x="249" y="580" width="120" height="80" as="geometry" />
        </mxCell>
        <mxCell id="u86qRjpWfpCtLh4vlSnC-20" value="&lt;div&gt;Souscrire à un abonnement&lt;/div&gt;" style="ellipse;whiteSpace=wrap;html=1;" parent="1" vertex="1">
          <mxGeometry x="249" y="490" width="120" height="80" as="geometry" />
        </mxCell>
        <mxCell id="u86qRjpWfpCtLh4vlSnC-21" value="&lt;div&gt;Résilier un abonnement&lt;/div&gt;" style="ellipse;whiteSpace=wrap;html=1;" parent="1" vertex="1">
          <mxGeometry x="249" y="400" width="120" height="80" as="geometry" />
        </mxCell>
        <mxCell id="u86qRjpWfpCtLh4vlSnC-22" value="&lt;div&gt;S’inscrire à un cours&lt;/div&gt;" style="ellipse;whiteSpace=wrap;html=1;" parent="1" vertex="1">
          <mxGeometry x="249" y="670" width="120" height="80" as="geometry" />
        </mxCell>
        <mxCell id="u86qRjpWfpCtLh4vlSnC-23" value="&lt;div&gt;Effectuer un paiement&lt;/div&gt;" style="ellipse;whiteSpace=wrap;html=1;" parent="1" vertex="1">
          <mxGeometry x="489" y="580" width="120" height="80" as="geometry" />
        </mxCell>
        <mxCell id="u86qRjpWfpCtLh4vlSnC-24" value="Gerer compte" style="ellipse;whiteSpace=wrap;html=1;" parent="1" vertex="1">
          <mxGeometry x="249" y="790" width="131" height="80" as="geometry" />
        </mxCell>
        <mxCell id="u86qRjpWfpCtLh4vlSnC-33" value="Consulter le site" style="ellipse;whiteSpace=wrap;html=1;" parent="1" vertex="1">
          <mxGeometry x="244" y="90" width="120" height="80" as="geometry" />
        </mxCell>
        <mxCell id="u86qRjpWfpCtLh4vlSnC-43" value="&lt;div&gt;Avec engagement&lt;/div&gt;" style="ellipse;whiteSpace=wrap;html=1;" parent="1" vertex="1">
          <mxGeometry x="610" y="480" width="120" height="80" as="geometry" />
        </mxCell>
        <mxCell id="u86qRjpWfpCtLh4vlSnC-44" value="&lt;div&gt;Sans engagement&lt;/div&gt;" style="ellipse;whiteSpace=wrap;html=1;" parent="1" vertex="1">
          <mxGeometry x="610" y="390" width="120" height="80" as="geometry" />
        </mxCell>
        <mxCell id="u86qRjpWfpCtLh4vlSnC-45" value="" style="endArrow=none;dashed=1;html=1;dashPattern=1 3;strokeWidth=2;rounded=0;entryX=0;entryY=0.5;entryDx=0;entryDy=0;" parent="1" source="u86qRjpWfpCtLh4vlSnC-47" target="u86qRjpWfpCtLh4vlSnC-44" edge="1">
          <mxGeometry width="50" height="50" relative="1" as="geometry">
            <mxPoint x="369" y="530" as="sourcePoint" />
            <mxPoint x="560" y="510" as="targetPoint" />
          </mxGeometry>
        </mxCell>
        <mxCell id="u86qRjpWfpCtLh4vlSnC-46" value="" style="endArrow=none;dashed=1;html=1;dashPattern=1 3;strokeWidth=2;rounded=0;entryX=0;entryY=0.5;entryDx=0;entryDy=0;exitX=1;exitY=0.5;exitDx=0;exitDy=0;" parent="1" source="u86qRjpWfpCtLh4vlSnC-20" target="u86qRjpWfpCtLh4vlSnC-43" edge="1">
          <mxGeometry width="50" height="50" relative="1" as="geometry">
            <mxPoint x="379" y="540" as="sourcePoint" />
            <mxPoint x="620" y="440" as="targetPoint" />
          </mxGeometry>
        </mxCell>
        <mxCell id="u86qRjpWfpCtLh4vlSnC-48" value="" style="endArrow=none;dashed=1;html=1;dashPattern=1 3;strokeWidth=2;rounded=0;entryX=0;entryY=0.5;entryDx=0;entryDy=0;" parent="1" target="u86qRjpWfpCtLh4vlSnC-47" edge="1">
          <mxGeometry width="50" height="50" relative="1" as="geometry">
            <mxPoint x="369" y="530" as="sourcePoint" />
            <mxPoint x="610" y="430" as="targetPoint" />
          </mxGeometry>
        </mxCell>
        <mxCell id="u86qRjpWfpCtLh4vlSnC-47" value="&amp;lt;&amp;lt;extend&amp;gt;&amp;gt;" style="text;html=1;align=center;verticalAlign=middle;whiteSpace=wrap;rounded=0;" parent="1" vertex="1">
          <mxGeometry x="480" y="460" width="60" height="30" as="geometry" />
        </mxCell>
        <mxCell id="u86qRjpWfpCtLh4vlSnC-49" value="&amp;lt;&amp;lt;extend&amp;gt;&amp;gt;" style="text;html=1;align=center;verticalAlign=middle;whiteSpace=wrap;rounded=0;" parent="1" vertex="1">
          <mxGeometry x="489" y="505" width="60" height="30" as="geometry" />
        </mxCell>
        <mxCell id="u86qRjpWfpCtLh4vlSnC-50" value="" style="endArrow=none;dashed=1;html=1;dashPattern=1 3;strokeWidth=2;rounded=0;entryX=0;entryY=0.5;entryDx=0;entryDy=0;" parent="1" source="u86qRjpWfpCtLh4vlSnC-53" target="u86qRjpWfpCtLh4vlSnC-23" edge="1">
          <mxGeometry width="50" height="50" relative="1" as="geometry">
            <mxPoint x="370" y="530" as="sourcePoint" />
            <mxPoint x="560" y="510" as="targetPoint" />
          </mxGeometry>
        </mxCell>
        <mxCell id="u86qRjpWfpCtLh4vlSnC-51" value="" style="endArrow=none;dashed=1;html=1;dashPattern=1 3;strokeWidth=2;rounded=0;entryX=0;entryY=0.5;entryDx=0;entryDy=0;" parent="1" source="u86qRjpWfpCtLh4vlSnC-55" target="u86qRjpWfpCtLh4vlSnC-23" edge="1">
          <mxGeometry width="50" height="50" relative="1" as="geometry">
            <mxPoint x="369" y="620" as="sourcePoint" />
            <mxPoint x="488" y="710" as="targetPoint" />
          </mxGeometry>
        </mxCell>
        <mxCell id="u86qRjpWfpCtLh4vlSnC-52" value="" style="endArrow=none;dashed=1;html=1;dashPattern=1 3;strokeWidth=2;rounded=0;entryX=0;entryY=0.5;entryDx=0;entryDy=0;" parent="1" source="u86qRjpWfpCtLh4vlSnC-57" target="u86qRjpWfpCtLh4vlSnC-23" edge="1">
          <mxGeometry width="50" height="50" relative="1" as="geometry">
            <mxPoint x="369" y="709.63" as="sourcePoint" />
            <mxPoint x="489" y="709.63" as="targetPoint" />
          </mxGeometry>
        </mxCell>
        <mxCell id="u86qRjpWfpCtLh4vlSnC-54" value="" style="endArrow=none;dashed=1;html=1;dashPattern=1 3;strokeWidth=2;rounded=0;entryX=0;entryY=0.5;entryDx=0;entryDy=0;" parent="1" target="u86qRjpWfpCtLh4vlSnC-53" edge="1">
          <mxGeometry width="50" height="50" relative="1" as="geometry">
            <mxPoint x="370" y="530" as="sourcePoint" />
            <mxPoint x="489" y="620" as="targetPoint" />
          </mxGeometry>
        </mxCell>
        <mxCell id="u86qRjpWfpCtLh4vlSnC-53" value="&amp;lt;&amp;lt;extend&amp;gt;&amp;gt;" style="text;html=1;align=center;verticalAlign=middle;whiteSpace=wrap;rounded=0;" parent="1" vertex="1">
          <mxGeometry x="400" y="555" width="60" height="30" as="geometry" />
        </mxCell>
        <mxCell id="u86qRjpWfpCtLh4vlSnC-56" value="" style="endArrow=none;dashed=1;html=1;dashPattern=1 3;strokeWidth=2;rounded=0;entryX=0;entryY=0.5;entryDx=0;entryDy=0;" parent="1" target="u86qRjpWfpCtLh4vlSnC-55" edge="1">
          <mxGeometry width="50" height="50" relative="1" as="geometry">
            <mxPoint x="369" y="620" as="sourcePoint" />
            <mxPoint x="489" y="620" as="targetPoint" />
          </mxGeometry>
        </mxCell>
        <mxCell id="u86qRjpWfpCtLh4vlSnC-55" value="&amp;lt;&amp;lt;extend&amp;gt;&amp;gt;" style="text;html=1;align=center;verticalAlign=middle;whiteSpace=wrap;rounded=0;" parent="1" vertex="1">
          <mxGeometry x="384" y="605" width="60" height="30" as="geometry" />
        </mxCell>
        <mxCell id="u86qRjpWfpCtLh4vlSnC-58" value="" style="endArrow=none;dashed=1;html=1;dashPattern=1 3;strokeWidth=2;rounded=0;entryX=0;entryY=0.5;entryDx=0;entryDy=0;" parent="1" target="u86qRjpWfpCtLh4vlSnC-57" edge="1">
          <mxGeometry width="50" height="50" relative="1" as="geometry">
            <mxPoint x="369" y="709.63" as="sourcePoint" />
            <mxPoint x="489" y="620" as="targetPoint" />
          </mxGeometry>
        </mxCell>
        <mxCell id="u86qRjpWfpCtLh4vlSnC-57" value="&amp;lt;&amp;lt;extend&amp;gt;&amp;gt;" style="text;html=1;align=center;verticalAlign=middle;whiteSpace=wrap;rounded=0;" parent="1" vertex="1">
          <mxGeometry x="390" y="660" width="60" height="30" as="geometry" />
        </mxCell>
        <mxCell id="gBSQG5GMGo4duFB-_LP6-4" value="" style="endArrow=none;dashed=1;html=1;dashPattern=1 3;strokeWidth=2;rounded=0;exitX=1;exitY=0.5;exitDx=0;exitDy=0;" parent="1" source="gBSQG5GMGo4duFB-_LP6-7" edge="1">
          <mxGeometry width="50" height="50" relative="1" as="geometry">
            <mxPoint x="540" y="770" as="sourcePoint" />
            <mxPoint x="480" y="820" as="targetPoint" />
          </mxGeometry>
        </mxCell>
        <mxCell id="gBSQG5GMGo4duFB-_LP6-6" value="Ajouter/Supprimer/ Consulter Compte" style="ellipse;whiteSpace=wrap;html=1;" parent="1" vertex="1">
          <mxGeometry x="470" y="780" width="120" height="80" as="geometry" />
        </mxCell>
        <mxCell id="gBSQG5GMGo4duFB-_LP6-8" value="" style="endArrow=none;dashed=1;html=1;dashPattern=1 3;strokeWidth=2;rounded=0;exitX=1;exitY=0.5;exitDx=0;exitDy=0;" parent="1" source="u86qRjpWfpCtLh4vlSnC-24" target="gBSQG5GMGo4duFB-_LP6-7" edge="1">
          <mxGeometry width="50" height="50" relative="1" as="geometry">
            <mxPoint x="380" y="830" as="sourcePoint" />
            <mxPoint x="480" y="820" as="targetPoint" />
          </mxGeometry>
        </mxCell>
        <mxCell id="gBSQG5GMGo4duFB-_LP6-7" value="&amp;lt;&amp;lt;extend&amp;gt;&amp;gt;" style="text;html=1;align=center;verticalAlign=middle;whiteSpace=wrap;rounded=0;" parent="1" vertex="1">
          <mxGeometry x="400" y="815" width="60" height="30" as="geometry" />
        </mxCell>
      </root>
    </mxGraphModel>
  </diagram>
</mxfile>
